:FULLY-SPECIFIED
:FORCE-ALL-JOINTS-BE-3DOF
:DEGREES
421
root 10.0923 16.7544 23.3715 8.16413 0.340079 -4.72743
lfemur -44.1295 2.46703 -18.6683
ltibia 34.4534 0 0
lfoot 1.12919 7.77966 0
ltoes 1.92085 0 0
rfemur 24.8603 3.02752 28.3196
rtibia 7.31528e-14 0 0
rfoot 9.41801 3.91051 0
rtoes -22.3075 0 0
lowerback -8.77415 2.76314 1.22441
upperback -1.79946 3.49013 2.17307
thorax 2.98216 1.74173 1.95036
lowerneck -19.4868 -6.95681 -14.6684
upperneck 21.9234 -9.00444 14.2777
head 11.7761 -3.65347 6.34443
lclavicle -6.32539e-15 -5.96354e-15 0
lhumerus -51.0294 -7.1516 92.5795
lradius 22.4522 0 0
lwrist 0.884618 0 0
lhand -7.18723 -22.5429 0
lfingers 7.12502 0 0
lthumb 18.6907 6.57915 0
rclavicle -6.32539e-15 -5.96354e-15 0
rhumerus -36.1808 10.0838 -88.6768
rradius 33.0314 0 0
rwrist -14.1029 0 0
rhand -29.0392 -24.6137 0
rfingers 7.12502 0 0
rthumb -2.3896 -54.58 0
422
root 10.1177 16.7666 23.5277 8.17017 0.339255 -4.48091
lfemur -43.6999 2.69555 -19.1804
ltibia 34.6097 0 0
lfoot 1.26002 7.5358 0
ltoes 2.12516 0 0
rfemur 24.1789 2.78684 27.8787
rtibia 1.67901 0 0
rfoot 9.74362 3.56399 0
rtoes -22.1569 0 0
lowerback -8.72894 2.70256 1.0612
upperback -1.8937 3.42513 2.0895
thorax 2.85866 1.71044 1.94537
lowerneck -19.4167 -6.90837 -14.6609
upperneck 21.9624 -8.94258 14.249
head 11.765 -3.63049 6.34388
lclavicle -6.04131e-15 -5.86759e-15 0
lhumerus -50.6627 -7.0226 92.4239
lradius 22.2698 0 0
lwrist 0.551746 0 0
lhand -7.25005 -22.5801 0
lfingers 7.12502 0 0
lthumb 18.6302 6.54684 0
rclavicle -6.04131e-15 -5.86759e-15 0
rhumerus -36.6938 9.99525 -88.8444
rradius 32.8158 0 0
rwrist -13.9472 0 0
rhand -29.0977 -24.6951 0
rfingers 7.12502 0 0
rthumb -2.44607 -54.6603 0
423
root 10.1441 16.7834 23.6827 8.16544 0.313257 -4.20295
lfemur -43.1841 2.90641 -19.7062
ltibia 34.6694 0 0
lfoot 1.27464 7.31399 0
ltoes 2.2309 0 0
rfemur 23.2929 2.51602 27.3801
rtibia 3.74644 0 0
rfoot 10.0212 3.16669 0
rtoes -21.844 0 0
lowerback -8.66556 2.63961 0.881323
upperback -1.99557 3.35789 2.00195
thorax 2.71641 1.67862 1.94461
lowerneck -19.3208 -6.845 -14.6469
upperneck 22.0023 -8.86106 14.207
head 11.7446 -3.60037 6.34035
lclavicle -5.73294e-15 -5.69721e-15 0
lhumerus -50.2661 -6.86247 92.2668
lradius 22.0784 0 0
lwrist 0.19534 0 0
lhand -7.34364 -22.6175 0
lfingers 7.12502 0 0
lthumb 18.5401 6.51695 0
rclavicle -5.73294e-15 -5.69721e-15 0
rhumerus -37.2339 9.9428 -89.0155
rradius 32.6049 0 0
rwrist -13.7987 0 0
rhand -29.1744 -24.7789 0
rfingers 7.12502 0 0
rthumb -2.52018 -54.7428 0
424
root 10.1715 16.8043 23.8365 8.15057 0.265003 -3.8971
lfemur -42.5894 3.10035 -20.2428
ltibia 34.6407 0 0
lfoot 1.18214 7.1127 0
ltoes 2.24749 0 0
rfemur 22.2204 2.21889 26.8305
rtibia 6.16089 0 0
rfoot 10.2508 2.72408 0
rtoes -21.3857 0 0
lowerback -8.58562 2.57414 0.686748
upperback -2.10369 3.28809 1.91119
thorax 2.55786 1.64601 1.94786
lowerneck -19.2022 -6.76799 -14.6266
upperneck 22.0433 -8.76154 14.1527
head 11.7158 -3.56367 6.33402
lclavicle -5.40141e-15 -5.45818e-15 0
lhumerus -49.8404 -6.67639 92.1087
lradius 21.8802 0 0
lwrist -0.180496 0 0
lhand -7.46526 -22.6551 0
lfingers 7.12502 0 0
lthumb 18.423 6.48927 0
rclavicle -5.40141e-15 -5.45818e-15 0
rhumerus -37.7969 9.92327 -89.1885
rradius 32.3999 0 0
rwrist -13.6579 0 0
rhand -29.268 -24.8644 0
rfingers 7.12502 0 0
rthumb -2.61052 -54.8267 0
